<svg xmlns="http://www.w3.org/2000/svg" version="1.0" preserveAspectRatio="xMidYMid meet" viewBox="26.18 255.48 799.83 395.34">
<metadata>
Created by potrace 1.10, written by Peter Selinger 2001-2011
</metadata>
<g transform="translate(0.000000,900.000000) scale(0.100000,-0.100000)" fill="#000000" stroke="none">
<path d="M3076 6368 c-3 -46 -7 -135 -9 -198 -4 -119 -10 -154 -33 -180 -9 -11 -14 -64 -16 -195 -3 -168 -5 -182 -25 -212 -18 -25 -23 -45 -23 -97 0 -52 -3 -66 -15 -66 -10 0 -15 10 -15 29 0 49 -11 62 -74 92 -73 35 -183 41 -207 12 -12 -13 -14 -156 -14 -838 0 -655 -3 -825 -13 -837 -10 -12 -40 -17 -132 -19 -65 -2 -122 -8 -127 -12 -4 -5 -10 -83 -13 -173 -5 -174 -23 -227 -28 -84 -4 103 -22 105 -22 1 0 -58 -4 -82 -15 -91 -22 -18 -126 -6 -142 16 -10 14 -13 124 -13 491 0 530 7 484 -75 498 -22 4 -51 15 -65 23 -51 33 -74 43 -89 36 -9 -4 -81 -8 -160 -10 -102 -2 -149 -7 -165 -17 -15 -10 -26 -11 -37 -4 -13 8 -21 6 -34 -6 -9 -9 -22 -17 -29 -17 -7 0 -20 -8 -29 -18 -15 -16 -17 -52 -17 -295 0 -152 -3 -277 -7 -277 -9 0 -82 84 -105 120 -13 20 -14 37 -8 83 6 43 5 67 -6 92 -8 19 -14 45 -14 59 0 16 -13 36 -39 58 -21 18 -41 43 -45 56 -10 29 -32 28 -48 -2 -7 -14 -29 -35 -48 -48 -26 -17 -37 -34 -44 -63 -4 -22 -11 -47 -14 -55 -3 -8 -4 -49 -3 -90 l3 -75 -56 -58 c-48 -49 -56 -63 -56 -95 0 -21 -7 -47 -15 -58 -19 -25 -19 -48 0 -64 12 -10 15 -41 15 -156 0 -78 -4 -145 -8 -148 -5 -3 -48 -6 -96 -8 -70 -2 -90 0 -99 13 -7 8 -34 26 -62 38 -27 13 -58 27 -67 32 -10 5 -42 9 -72 9 -46 0 -58 -4 -74 -25 -11 -14 -25 -25 -31 -25 -6 0 -17 -11 -26 -24 -12 -19 -27 -24 -77 -30 -34 -3 -66 -10 -70 -14 -5 -5 -7 -219 -6 -478 l3 -469 3972 -3 c2566 -1 3981 1 3997 8 l26 10 0 517 c0 333 -4 532 -11 556 l-10 38 -57 -2 c-31 -1 -63 0 -71 2 -10 3 -17 -6 -21 -26 l-5 -30 -80 0 -80 0 -5 105 c-3 58 -9 111 -13 118 -5 6 -26 12 -47 12 -35 0 -40 3 -46 28 -9 36 -20 42 -81 42 -41 0 -54 4 -63 19 -6 12 -10 123 -10 290 0 270 0 270 -22 283 -31 16 -119 30 -205 32 -68 1 -74 -1 -105 -30 -32 -31 -36 -32 -158 -39 -68 -3 -132 -11 -142 -16 -16 -8 -18 -24 -18 -127 0 -64 -4 -123 -9 -131 -5 -8 -35 -15 -74 -18 l-66 -6 -22 37 c-21 35 -39 40 -39 9 0 -18 -28 -81 -45 -103 -19 -24 -27 -111 -25 -296 2 -198 2 -198 -81 -181 -45 9 -49 12 -55 45 -4 20 -4 206 0 414 4 238 3 384 -3 395 -8 15 -20 18 -68 16 -32 -2 -66 -3 -77 -4 -10 0 -28 9 -41 21 -18 17 -29 19 -71 13 -27 -3 -60 -14 -74 -24 -14 -9 -43 -20 -65 -24 -49 -8 -55 -17 -55 -83 0 -41 -4 -54 -17 -58 -10 -4 -31 -12 -48 -19 -16 -7 -46 -15 -66 -19 -21 -4 -48 -19 -65 -37 -26 -27 -29 -38 -33 -110 -2 -50 -7 -79 -15 -80 -29 -3 -163 3 -179 7 -17 5 -18 32 -17 470 1 255 -1 468 -5 474 -3 5 -33 10 -65 10 -72 0 -90 19 -90 95 0 45 -3 53 -29 68 -36 21 -74 22 -91 2 -20 -24 -48 -18 -65 15 -9 17 -21 30 -29 30 -7 0 -22 10 -34 23 -20 21 -22 34 -24 207 -4 250 -22 243 -26 -10 l-2 -190 -28 -17 c-15 -9 -51 -32 -80 -51 l-54 -34 7 -727 c6 -689 4 -755 -21 -903 -6 -38 -17 -48 -30 -27 -3 6 -17 8 -30 5 l-23 -6 6 362 c6 360 6 363 -15 382 -12 10 -36 21 -54 25 -33 7 -33 7 -38 76 l-5 70 -68 3 c-88 4 -97 -4 -97 -83 0 -49 -4 -66 -20 -80 -17 -15 -20 -33 -22 -149 l-3 -131 -80 -5 -80 -5 -7 -88 c-8 -107 -11 -117 -40 -117 -38 0 -52 -16 -57 -67 l-6 -48 -40 0 -40 0 -5 340 -5 340 -95 -2 c-149 -2 -212 -14 -226 -41 -16 -33 -20 -35 -43 -22 -13 6 -21 21 -21 35 0 51 -99 70 -129 26 -20 -32 -83 -29 -108 4 -12 17 -31 27 -58 31 -94 13 -85 -5 -86 172 0 86 -4 177 -7 201 l-7 44 -46 2 c-26 1 -52 5 -58 9 -8 5 -11 106 -11 342 l0 334 -22 9 c-13 5 -56 12 -96 16 -79 8 -92 18 -92 73 0 16 -7 35 -15 42 -12 10 -15 46 -15 204 l0 192 -29 28 c-26 25 -30 37 -36 109 -4 45 -7 137 -7 204 0 68 -4 125 -8 128 -5 3 -11 -32 -14 -77z m412 -3210 c13 -13 18 -401 6 -432 -7 -19 -55 -21 -72 -4 -8 8 -12 63 -12 180 0 157 -1 168 -20 178 -28 15 -25 45 6 69 30 23 74 27 92 9z m624 -13 c30 -28 42 -59 36 -96 -6 -44 -78 -33 -78 12 0 25 -40 36 -56 15 -19 -27 -5 -54 53 -104 89 -77 114 -150 73 -217 -43 -70 -157 -70 -200 0 -12 20 -20 47 -18 62 2 23 8 29 36 31 29 3 34 0 48 -33 11 -28 20 -36 37 -33 17 2 23 11 25 39 3 32 -2 40 -58 88 -70 61 -90 94 -90 150 0 33 7 47 35 76 31 30 42 35 83 35 37 0 53 -6 74 -25z m276 13 c9 -9 12 -71 12 -219 0 -226 -2 -234 -57 -227 l-28 3 -3 215 c-1 118 0 220 2 227 7 16 58 17 74 1z m367 -33 c0 -36 -3 -40 -27 -43 l-28 -3 0 -173 c0 -190 -3 -200 -57 -194 l-28 3 -5 180 c-5 179 -5 179 -29 185 -33 7 -51 39 -40 68 8 22 12 23 111 20 l103 -3 0 -40z m363 3 c3 -33 0 -38 -23 -44 -14 -3 -35 -4 -47 -1 -34 9 -58 -10 -58 -46 0 -42 15 -57 57 -57 39 0 60 -29 43 -59 -7 -14 -23 -21 -53 -23 -42 -3 -42 -3 -45 -44 -4 -51 17 -77 54 -68 13 3 36 3 50 0 21 -6 25 -11 22 -39 l-3 -32 -94 -3 c-60 -2 -98 1 -107 9 -11 9 -14 52 -14 211 0 121 4 207 11 219 9 18 19 19 107 17 l97 -3 3 -37z"/>
<path d="M1153 4669 l-27 -41 19 -35 c25 -46 40 -51 70 -23 36 34 39 56 16 94 -32 51 -47 52 -78 5z"/>
<path d="M1165 4499 c-10 -30 18 -58 40 -39 22 18 15 54 -12 58 -15 2 -23 -3 -28 -19z"/>
</g>
</svg>